<svg xmlns="http://www.w3.org/2000/svg" xmlns:xlink="http://www.w3.org/1999/xlink" preserveAspectRatio="xMidYMid" width="340" height="80" viewBox="0 0 340 80">
  <defs>
    <style>

      .cls-2 {
        fill: #000000;
      }
    </style>
  </defs>
  <path d="M339.963,23.447 C339.963,23.447 330.569,56.257 330.569,56.257 C330.269,57.389 329.519,57.954 328.320,57.954 C328.320,57.954 316.927,57.954 316.927,57.954 C315.728,57.954 314.978,57.389 314.679,56.257 C314.679,56.257 305.285,23.447 305.285,23.447 C305.251,23.310 305.234,23.139 305.234,22.933 C305.234,22.728 305.342,22.513 305.559,22.290 C305.776,22.068 306.034,21.956 306.334,21.956 C306.334,21.956 315.628,21.956 315.628,21.956 C316.827,21.956 317.577,22.522 317.877,23.653 C317.877,23.653 322.624,42.783 322.624,42.783 C322.624,42.783 327.370,23.653 327.370,23.653 C327.670,22.522 328.420,21.956 329.620,21.956 C329.620,21.956 338.914,21.956 338.914,21.956 C339.214,21.956 339.472,22.068 339.688,22.290 C339.905,22.513 340.013,22.728 340.013,22.933 C340.013,23.139 339.996,23.310 339.963,23.447 ZM301.637,33.013 C301.637,33.013 293.342,33.013 293.342,33.013 C293.342,33.013 293.342,56.566 293.342,56.566 C293.342,56.943 293.208,57.268 292.942,57.543 C292.675,57.817 292.359,57.954 291.992,57.954 C291.992,57.954 281.999,57.954 281.999,57.954 C281.633,57.954 281.316,57.817 281.049,57.543 C280.783,57.268 280.650,56.943 280.650,56.566 C280.650,56.566 280.650,33.013 280.650,33.013 C280.650,33.013 272.355,33.013 272.355,33.013 C271.988,33.013 271.672,32.876 271.405,32.601 C271.139,32.327 271.006,32.001 271.006,31.624 C271.006,31.624 271.006,23.345 271.006,23.345 C271.006,22.967 271.139,22.642 271.405,22.367 C271.672,22.093 271.988,21.956 272.355,21.956 C272.355,21.956 301.637,21.956 301.637,21.956 C302.003,21.956 302.320,22.093 302.586,22.367 C302.853,22.642 302.986,22.967 302.986,23.345 C302.986,23.345 302.986,31.624 302.986,31.624 C302.986,32.001 302.853,32.327 302.586,32.601 C302.320,32.876 302.003,33.013 301.637,33.013 ZM252.255,-0.010 C252.255,-0.010 254.023,-0.010 254.023,-0.010 C254.023,-0.010 254.023,79.952 254.023,79.952 C254.023,79.952 252.255,79.952 252.255,79.952 C252.255,79.952 252.255,-0.010 252.255,-0.010 ZM234.860,30.780 C234.860,30.780 232.815,30.780 232.815,30.780 C232.798,29.885 232.706,28.874 232.548,27.748 C232.465,27.102 232.324,26.664 232.133,26.432 C232.016,26.283 231.792,26.183 231.451,26.125 C230.702,25.984 229.014,25.910 226.386,25.910 C226.386,25.910 223.133,25.910 223.133,25.910 C223.133,25.910 223.084,26.465 223.084,26.465 C223.084,26.465 223.084,26.979 223.084,26.979 C223.084,26.979 223.084,32.568 223.084,32.568 C223.084,32.568 223.084,47.134 223.084,47.134 C223.084,50.628 223.167,52.732 223.333,53.444 C223.450,53.866 223.691,54.173 224.065,54.380 C224.448,54.578 225.612,54.711 227.575,54.777 C227.575,54.777 227.575,56.715 227.575,56.715 C224.373,56.566 221.703,56.499 219.566,56.499 C217.262,56.499 214.592,56.566 211.557,56.715 C211.557,56.715 211.557,54.777 211.557,54.777 C213.511,54.711 214.667,54.578 215.033,54.380 C215.399,54.173 215.648,53.858 215.782,53.419 C215.957,52.723 216.048,50.628 216.048,47.134 C216.048,47.134 216.048,32.568 216.048,32.568 C216.048,28.734 216.040,26.697 216.031,26.465 C216.031,26.440 216.023,26.250 215.998,25.910 C215.998,25.910 212.530,25.910 212.530,25.910 C210.501,25.910 208.962,25.968 207.922,26.076 C207.490,26.134 207.182,26.258 206.999,26.423 C206.824,26.598 206.692,26.920 206.608,27.392 C206.450,28.535 206.350,29.670 206.317,30.780 C206.317,30.780 204.271,30.780 204.271,30.780 C204.271,30.780 204.222,26.357 204.222,26.357 C204.204,25.752 204.180,25.215 204.138,24.726 C204.097,24.246 204.022,23.674 203.922,23.028 C203.922,23.028 204.138,22.780 204.138,22.780 C204.887,22.846 205.685,22.896 206.534,22.929 C207.373,22.970 210.076,23.003 214.642,23.028 C214.642,23.028 224.490,23.028 224.490,23.028 C228.581,23.028 231.326,22.995 232.723,22.938 C233.455,22.896 234.203,22.846 234.969,22.780 C234.969,22.780 235.210,23.020 235.210,23.020 C235.077,23.972 234.993,24.817 234.961,25.563 C234.961,25.563 234.860,30.780 234.860,30.780 ZM193.792,56.715 C193.709,56.342 193.501,55.862 193.160,55.257 C193.160,55.257 188.311,47.316 188.311,47.316 C186.673,44.600 185.325,42.521 184.269,41.089 C183.720,40.327 183.197,39.764 182.689,39.391 C182.689,39.391 182.955,38.588 182.955,38.588 C183.329,38.605 183.604,38.613 183.787,38.613 C185.409,38.613 186.681,38.365 187.605,37.867 C188.536,37.362 189.309,36.534 189.941,35.392 C190.581,34.240 190.898,32.957 190.898,31.533 C190.898,30.059 190.532,28.825 189.808,27.831 C189.084,26.838 188.220,26.159 187.197,25.786 C186.515,25.521 185.284,25.397 183.521,25.397 C182.739,25.397 181.965,25.463 181.209,25.587 C181.158,26.159 181.109,27.359 181.059,29.206 C180.959,33.843 180.909,37.006 180.909,38.687 C180.909,41.370 180.959,45.022 181.059,49.635 C181.093,51.556 181.142,52.732 181.217,53.162 C181.292,53.593 181.400,53.883 181.524,54.032 C181.658,54.189 181.858,54.305 182.123,54.388 C182.481,54.495 183.545,54.578 185.301,54.628 C185.301,54.628 185.301,56.715 185.301,56.715 C182.489,56.616 179.661,56.566 176.817,56.566 C174.281,56.566 171.919,56.616 169.732,56.715 C169.732,56.715 169.732,54.628 169.732,54.628 C171.595,54.545 172.692,54.454 173.017,54.363 C173.224,54.297 173.382,54.214 173.466,54.106 C173.557,53.999 173.632,53.775 173.682,53.436 C173.790,52.807 173.873,51.846 173.923,50.554 C173.923,50.554 174.122,43.465 174.122,43.465 C174.122,43.465 174.122,34.373 174.122,34.373 C174.122,32.154 174.073,29.934 173.973,27.699 C173.940,26.813 173.882,26.225 173.798,25.943 C173.724,25.662 173.624,25.463 173.507,25.347 C173.399,25.239 173.200,25.140 172.925,25.057 C172.435,24.925 171.370,24.817 169.732,24.718 C169.732,24.718 169.732,22.780 169.732,22.780 C170.072,22.780 171.395,22.813 173.707,22.880 C174.763,22.912 176.268,22.929 178.215,22.929 C179.944,22.929 181.367,22.904 182.481,22.854 C184.627,22.805 186.357,22.780 187.654,22.780 C190.025,22.780 191.754,22.912 192.827,23.169 C193.900,23.426 194.832,23.898 195.638,24.585 C196.445,25.273 197.036,26.026 197.410,26.846 C197.784,27.666 197.967,28.643 197.967,29.777 C197.967,30.987 197.784,32.046 197.410,32.957 C197.036,33.868 196.512,34.705 195.846,35.458 C195.181,36.220 194.432,36.866 193.601,37.412 C192.777,37.950 191.746,38.447 190.507,38.895 C190.914,39.624 191.380,40.369 191.896,41.122 C192.420,41.884 192.719,42.339 192.802,42.505 C192.894,42.662 192.994,42.819 193.093,42.960 C193.093,42.960 196.869,48.599 196.869,48.599 C196.869,48.599 198.508,51.026 198.508,51.026 C199.722,52.640 200.471,53.585 200.753,53.883 C201.028,54.173 201.294,54.372 201.568,54.487 C201.834,54.595 202.342,54.661 203.090,54.678 C203.090,54.678 203.090,56.715 203.090,56.715 C200.603,56.648 198.807,56.616 197.684,56.616 C196.387,56.616 195.090,56.648 193.792,56.715 ZM151.251,56.715 C151.251,56.715 151.251,54.678 151.251,54.678 C153.056,54.595 154.121,54.504 154.453,54.396 C154.786,54.297 154.952,54.048 154.952,53.659 C154.952,53.254 154.770,52.591 154.395,51.672 C154.395,51.672 152.299,46.331 152.299,46.331 C152.299,46.331 139.774,46.331 139.774,46.331 C139.774,46.331 138.693,49.245 138.693,49.245 C137.878,51.456 137.470,52.848 137.470,53.419 C137.470,53.808 137.603,54.082 137.861,54.239 C138.252,54.471 139.416,54.612 141.362,54.678 C141.362,54.678 141.362,56.715 141.362,56.715 C141.362,56.715 135.716,56.566 135.716,56.566 C135.716,56.566 130.110,56.715 130.110,56.715 C130.110,56.715 130.110,54.703 130.110,54.703 C131.457,54.603 132.264,54.512 132.547,54.421 C132.821,54.330 133.062,54.173 133.270,53.949 C133.487,53.717 133.894,52.914 134.493,51.523 C135.391,49.510 136.481,46.910 137.770,43.722 C137.770,43.722 144.124,28.096 144.124,28.096 C144.124,28.096 146.270,22.581 146.270,22.581 C146.270,22.581 149.729,22.581 149.729,22.581 C149.729,22.581 160.624,47.912 160.624,47.912 C160.624,47.912 162.296,51.647 162.296,51.647 C162.870,52.956 163.236,53.709 163.394,53.915 C163.560,54.114 163.735,54.255 163.926,54.338 C164.143,54.437 164.658,54.512 165.490,54.578 C165.731,54.595 166.089,54.628 166.562,54.678 C166.562,54.678 166.562,56.715 166.562,56.715 C166.562,56.715 159.793,56.566 159.793,56.566 C159.793,56.566 151.251,56.715 151.251,56.715 ZM145.887,31.078 C145.887,31.078 140.889,43.548 140.889,43.548 C142.394,43.582 144.124,43.598 146.070,43.598 C147.966,43.598 149.638,43.582 151.085,43.548 C151.085,43.548 145.887,31.078 145.887,31.078 ZM99.762,53.684 C101.134,53.784 102.706,53.833 104.494,53.833 C106.216,53.833 107.821,53.775 109.318,53.659 C110.807,53.552 111.722,53.394 112.046,53.204 C112.171,53.121 112.279,52.972 112.362,52.765 C112.670,52.020 112.986,50.537 113.310,48.318 C113.310,48.318 115.256,48.318 115.256,48.318 C114.899,51.523 114.724,54.156 114.724,56.226 C114.724,56.226 114.400,56.541 114.400,56.541 C113.950,56.590 113.460,56.624 112.944,56.640 C111.431,56.690 110.441,56.715 109.967,56.715 C109.967,56.715 107.139,56.715 107.139,56.715 C103.829,56.616 100.802,56.566 98.074,56.566 C97.666,56.566 94.947,56.616 89.907,56.715 C89.907,56.715 89.907,55.423 89.907,55.423 C90.905,54.968 91.703,54.512 92.310,54.040 C92.410,53.345 92.494,52.260 92.551,50.785 C92.684,47.979 92.751,45.933 92.751,44.649 C92.751,44.649 92.751,33.744 92.751,33.744 C92.751,33.321 92.735,31.748 92.701,29.015 C92.651,27.186 92.535,26.068 92.352,25.670 C92.269,25.504 92.144,25.388 91.978,25.331 C91.520,25.115 90.314,24.966 88.360,24.866 C88.360,24.866 88.360,22.780 88.360,22.780 C88.360,22.780 94.323,22.904 94.323,22.904 C95.321,22.920 96.303,22.929 97.259,22.929 C99.479,22.929 101.966,22.912 104.719,22.871 C104.719,22.871 110.167,22.780 110.167,22.780 C110.757,22.780 111.947,22.813 113.743,22.880 C113.901,22.880 114.175,22.929 114.549,23.028 C114.549,23.028 114.716,23.351 114.716,23.351 C114.716,23.351 114.250,26.912 114.250,26.912 C114.233,27.177 114.158,28.369 114.009,30.481 C114.009,30.481 112.063,30.481 112.063,30.481 C112.030,28.436 111.947,27.177 111.822,26.705 C111.771,26.515 111.664,26.374 111.506,26.274 C111.223,26.084 110.341,25.927 108.861,25.803 C107.372,25.678 105.967,25.612 104.628,25.612 C103.064,25.612 101.525,25.662 100.020,25.761 C99.795,27.583 99.687,29.901 99.687,32.700 C99.687,32.700 99.687,37.660 99.687,37.660 C100.802,37.743 101.950,37.785 103.131,37.785 C104.387,37.785 105.933,37.752 107.788,37.694 C108.220,37.677 108.528,37.636 108.686,37.553 C108.803,37.512 108.894,37.437 108.952,37.330 C109.052,37.172 109.143,36.849 109.227,36.344 C109.335,35.615 109.402,34.886 109.418,34.158 C109.418,34.158 111.364,34.158 111.364,34.158 C111.364,34.158 111.264,39.408 111.264,39.408 C111.264,39.408 111.364,44.641 111.364,44.641 C111.364,44.641 109.268,44.641 109.268,44.641 C109.301,43.010 109.227,41.950 109.052,41.445 C108.935,41.114 108.769,40.890 108.561,40.758 C108.354,40.625 107.854,40.518 107.072,40.443 C105.908,40.327 104.769,40.269 103.663,40.269 C102.016,40.269 100.694,40.319 99.687,40.418 C99.687,40.418 99.687,50.720 99.687,50.720 C99.687,51.887 99.712,52.872 99.762,53.684 ZM83.694,25.264 C83.420,25.405 83.178,25.620 82.962,25.910 C82.580,26.465 81.864,27.955 80.825,30.407 C80.825,30.407 78.862,34.919 78.862,34.919 C78.862,34.919 75.594,42.745 75.594,42.745 C75.594,42.745 71.369,53.038 71.369,53.038 C70.820,54.429 70.329,55.704 69.904,56.864 C69.904,56.864 66.204,56.864 66.204,56.864 C66.204,56.864 62.220,47.208 62.220,47.208 C62.220,47.208 58.769,38.986 58.769,38.986 C56.398,33.354 54.784,29.628 53.936,27.798 C53.287,26.440 52.797,25.645 52.456,25.397 C51.998,25.090 50.951,24.925 49.312,24.892 C49.312,24.892 49.312,22.780 49.312,22.780 C53.321,22.896 55.567,22.954 56.032,22.954 C56.032,22.954 65.172,22.780 65.172,22.780 C65.172,22.780 65.172,24.866 65.172,24.866 C63.317,24.884 62.204,25.007 61.846,25.231 C61.480,25.463 61.296,25.761 61.296,26.134 C61.296,26.332 61.338,26.572 61.421,26.870 C61.579,27.418 61.954,28.419 62.552,29.877 C62.552,29.877 63.833,33.090 63.833,33.090 C63.891,33.214 63.950,33.363 64.025,33.537 C64.025,33.537 70.179,48.509 70.179,48.509 C70.179,48.509 75.594,35.168 75.594,35.168 C75.743,34.845 76.333,33.305 77.365,30.548 C78.080,28.602 78.504,27.310 78.654,26.672 C78.704,26.482 78.729,26.283 78.729,26.092 C78.729,25.811 78.679,25.604 78.596,25.471 C78.504,25.331 78.388,25.231 78.238,25.165 C78.122,25.123 77.822,25.090 77.340,25.065 C76.309,24.950 75.410,24.884 74.662,24.866 C74.662,24.866 74.662,22.780 74.662,22.780 C74.662,22.780 80.650,22.929 80.650,22.929 C80.650,22.929 86.106,22.780 86.106,22.780 C86.106,22.780 86.106,24.866 86.106,24.866 C84.775,24.999 83.977,25.132 83.694,25.264 ZM30.873,56.715 C30.873,56.715 30.873,54.578 30.873,54.578 C32.720,54.512 33.793,54.446 34.084,54.372 C34.383,54.297 34.583,54.205 34.691,54.090 C34.807,53.982 34.882,53.792 34.932,53.535 C34.949,53.403 35.048,52.185 35.215,49.875 C35.248,49.063 35.265,47.804 35.265,46.090 C35.265,46.090 35.265,35.954 35.265,35.954 C35.265,32.700 35.265,30.622 35.265,29.719 C35.165,27.616 35.048,26.324 34.932,25.835 C34.899,25.645 34.824,25.496 34.699,25.388 C34.583,25.281 34.375,25.198 34.075,25.123 C33.776,25.049 32.712,24.983 30.873,24.916 C30.873,24.916 30.873,22.780 30.873,22.780 C32.945,22.880 35.323,22.929 38.026,22.929 C41.103,22.929 43.981,22.880 46.642,22.780 C46.642,22.780 46.642,24.916 46.642,24.916 C44.871,24.966 43.790,25.049 43.407,25.156 C43.149,25.223 42.958,25.339 42.817,25.513 C42.675,25.678 42.567,25.960 42.501,26.349 C42.467,26.639 42.400,28.345 42.301,31.466 C42.268,32.858 42.251,34.415 42.251,36.145 C42.251,36.145 42.251,45.916 42.251,45.916 C42.251,45.916 42.351,50.355 42.351,50.355 C42.351,52.020 42.434,53.105 42.600,53.609 C42.667,53.833 42.783,54.007 42.941,54.131 C43.099,54.247 43.349,54.346 43.690,54.421 C44.031,54.495 45.012,54.545 46.642,54.578 C46.642,54.578 46.642,56.715 46.642,56.715 C43.981,56.616 41.095,56.566 38.001,56.566 C35.257,56.566 32.878,56.616 30.873,56.715 ZM26.432,52.839 C26.432,52.839 26.133,56.325 26.133,56.325 C25.667,56.458 25.210,56.541 24.769,56.566 C23.713,56.665 22.149,56.715 20.087,56.715 C19.762,56.715 17.850,56.682 14.348,56.616 C11.729,56.549 9.874,56.516 8.785,56.516 C7.213,56.516 4.776,56.582 1.490,56.715 C1.490,56.715 1.490,55.522 1.490,55.522 C2.364,55.166 3.087,54.785 3.669,54.380 C3.861,54.231 3.994,54.082 4.060,53.941 C4.127,53.792 4.185,53.021 4.235,51.622 C4.335,48.881 4.385,45.204 4.385,40.592 C4.385,35.590 4.385,32.535 4.385,31.417 C4.318,28.602 4.235,26.879 4.135,26.250 C4.068,25.927 3.985,25.703 3.886,25.571 C3.778,25.438 3.595,25.339 3.337,25.256 C2.888,25.107 1.773,24.999 -0.007,24.916 C-0.007,24.916 -0.007,22.780 -0.007,22.780 C2.064,22.880 4.452,22.929 7.171,22.929 C10.215,22.929 13.084,22.880 15.762,22.780 C15.762,22.780 15.762,24.916 15.762,24.916 C13.758,24.999 12.552,25.140 12.128,25.355 C11.937,25.446 11.795,25.604 11.712,25.827 C11.620,26.042 11.537,27.037 11.470,28.800 C11.404,30.564 11.371,32.824 11.371,35.590 C11.371,35.590 11.371,36.121 11.371,36.121 C11.371,36.121 11.371,42.381 11.371,42.381 C11.371,42.381 11.470,53.585 11.470,53.585 C13.583,53.684 15.089,53.734 16.003,53.734 C18.490,53.734 20.677,53.585 22.582,53.286 C23.164,53.204 23.522,53.113 23.655,52.996 C23.780,52.881 23.921,52.549 24.071,52.003 C24.411,50.686 24.720,49.312 24.994,47.871 C24.994,47.871 27.040,47.871 27.040,47.871 C27.040,47.871 26.965,48.649 26.965,48.649 C26.965,48.649 26.432,52.839 26.432,52.839 Z" id="path-1" class="cls-2" fill-rule="evenodd"/>
</svg>
