<svg xmlns="http://www.w3.org/2000/svg" xmlns:xlink="http://www.w3.org/1999/xlink" preserveAspectRatio="xMidYMid" width="168" height="34" viewBox="0 0 168 34">
  <defs>
    <style>

      .cls-2 {
        fill: #c1962f;
      }
    </style>
  </defs>
  <path d="M121.569,33.988 C121.569,33.988 120.001,33.988 120.001,33.988 C120.001,33.988 -0.001,33.988 -0.001,33.988 C-0.001,33.988 -0.001,0.012 -0.001,0.012 C-0.001,0.012 120.001,0.012 120.001,0.012 C120.001,0.012 121.569,0.012 121.569,0.012 C121.569,0.012 167.994,0.012 167.994,0.012 C167.994,0.012 167.994,33.988 167.994,33.988 C167.994,33.988 121.569,33.988 121.569,33.988 ZM120.001,1.558 C120.001,1.558 1.566,1.558 1.566,1.558 C1.566,1.558 1.566,32.442 1.566,32.442 C1.566,32.442 120.001,32.442 120.001,32.442 C120.001,32.442 120.001,1.558 120.001,1.558 ZM141.895,8.581 C141.895,8.581 129.142,8.581 129.142,8.581 C129.142,8.581 129.142,10.884 129.142,10.884 C129.142,10.884 134.302,10.884 134.302,10.884 C134.302,10.884 134.302,25.373 134.302,25.373 C134.302,25.373 136.760,25.373 136.760,25.373 C136.760,25.373 136.760,10.884 136.760,10.884 C136.760,10.884 141.895,10.884 141.895,10.884 C141.895,10.884 141.895,8.581 141.895,8.581 ZM156.254,8.581 C156.254,8.581 151.144,21.150 151.144,21.150 C151.144,21.150 146.082,8.581 146.082,8.581 C146.082,8.581 143.404,8.581 143.404,8.581 C143.404,8.581 150.243,25.421 150.243,25.421 C150.243,25.421 152.044,25.421 152.044,25.421 C152.044,25.421 158.883,8.581 158.883,8.581 C158.883,8.581 156.254,8.581 156.254,8.581 ZM14.272,23.057 C14.272,23.057 22.280,23.057 22.280,23.057 C22.280,23.057 22.280,25.480 22.280,25.480 C22.280,25.480 11.814,25.480 11.814,25.480 C11.814,25.480 11.814,8.689 11.814,8.689 C11.814,8.689 14.272,8.689 14.272,8.689 C14.272,8.689 14.272,23.057 14.272,23.057 ZM33.037,11.015 C33.037,11.015 29.873,11.015 29.873,11.015 C29.873,11.015 29.873,23.153 29.873,23.153 C29.873,23.153 33.037,23.153 33.037,23.153 C33.037,23.153 33.037,25.480 33.037,25.480 C33.037,25.480 24.251,25.480 24.251,25.480 C24.251,25.480 24.251,23.153 24.251,23.153 C24.251,23.153 27.415,23.153 27.415,23.153 C27.415,23.153 27.415,11.015 27.415,11.015 C27.415,11.015 24.251,11.015 24.251,11.015 C24.251,11.015 24.251,8.713 24.251,8.713 C24.251,8.713 33.037,8.713 33.037,8.713 C33.037,8.713 33.037,11.015 33.037,11.015 ZM42.309,21.258 C42.309,21.258 47.420,8.689 47.420,8.689 C47.420,8.689 50.049,8.689 50.049,8.689 C50.049,8.689 43.210,25.528 43.210,25.528 C43.210,25.528 41.409,25.528 41.409,25.528 C41.409,25.528 34.570,8.689 34.570,8.689 C34.570,8.689 37.247,8.689 37.247,8.689 C37.247,8.689 42.309,21.258 42.309,21.258 ZM62.266,11.135 C62.266,11.135 54.381,11.135 54.381,11.135 C54.381,11.135 54.381,15.861 54.381,15.861 C54.381,15.861 62.096,15.861 62.096,15.861 C62.096,15.861 62.096,18.308 62.096,18.308 C62.096,18.308 54.381,18.308 54.381,18.308 C54.381,18.308 54.381,23.057 54.381,23.057 C54.381,23.057 62.290,23.057 62.290,23.057 C62.290,23.057 62.290,25.480 62.290,25.480 C62.290,25.480 51.898,25.480 51.898,25.480 C51.898,25.480 51.898,8.713 51.898,8.713 C51.898,8.713 62.266,8.713 62.266,8.713 C62.266,8.713 62.266,11.135 62.266,11.135 ZM78.426,8.473 C78.426,8.473 85.265,25.480 85.265,25.480 C85.265,25.480 82.637,25.480 82.637,25.480 C82.637,25.480 81.006,21.234 81.006,21.234 C81.006,21.234 74.094,21.234 74.094,21.234 C74.094,21.234 72.439,25.480 72.439,25.480 C72.439,25.480 69.786,25.480 69.786,25.480 C69.786,25.480 76.625,8.473 76.625,8.473 C76.625,8.473 78.426,8.473 78.426,8.473 ZM80.105,18.956 C80.105,18.956 77.550,12.335 77.550,12.335 C77.550,12.335 74.995,18.956 74.995,18.956 C74.995,18.956 80.105,18.956 80.105,18.956 ZM98.772,14.038 C98.772,16.413 97.288,18.667 94.367,19.171 C94.367,19.171 99.746,25.480 99.746,25.480 C99.746,25.480 96.557,25.480 96.557,25.480 C96.557,25.480 90.351,18.116 90.351,18.116 C90.351,18.116 90.351,16.965 90.351,16.965 C90.351,16.965 93.223,16.965 93.223,16.965 C95.292,16.965 96.314,15.501 96.314,14.038 C96.314,12.599 95.292,11.135 93.223,11.135 C93.223,11.135 89.451,11.135 89.451,11.135 C89.451,11.135 89.451,25.480 89.451,25.480 C89.451,25.480 87.017,25.480 87.017,25.480 C87.017,25.480 87.017,8.689 87.017,8.689 C87.017,8.689 93.223,8.689 93.223,8.689 C96.922,8.689 98.772,11.375 98.772,14.038 ZM112.913,10.991 C112.913,10.991 107.777,10.991 107.777,10.991 C107.777,10.991 107.777,25.480 107.777,25.480 C107.777,25.480 105.319,25.480 105.319,25.480 C105.319,25.480 105.319,10.991 105.319,10.991 C105.319,10.991 100.159,10.991 100.159,10.991 C100.159,10.991 100.159,8.689 100.159,8.689 C100.159,8.689 112.913,8.689 112.913,8.689 C112.913,8.689 112.913,10.991 112.913,10.991 Z" id="path-1" class="cls-2" fill-rule="evenodd"/>
</svg>
